<mxfile host="app.diagrams.net" modified="2024-06-07T07:38:56.792Z" agent="Mozilla/5.0 (Macintosh; Intel Mac OS X 10_15_7) AppleWebKit/537.36 (KHTML, like Gecko) Chrome/125.0.0.0 Safari/537.36" version="24.4.13" etag="qhD26Bb7_qyGoSBHXdkW" type="github">
  <diagram name="Page-1" id="tauU3cLLh_RU_-2goZFp">
    <mxGraphModel>
      <root>
        <mxCell id="0" />
        <mxCell id="1" parent="0" />
      </root>
    </mxGraphModel>
  </diagram>
</mxfile>
